<?xml version="1.0" encoding="utf-8"?>
<!-- Generator: Adobe Illustrator 19.2.1, SVG Export Plug-In . SVG Version: 6.00 Build 0)  -->
<svg version="1.1" id="layer" xmlns="http://www.w3.org/2000/svg" xmlns:xlink="http://www.w3.org/1999/xlink" x="0px" y="0px"
	 viewBox="0 0 652 652" style="enable-background:new 0 0 652 652;" xml:space="preserve">
<style type="text/css">
	.st0{fill:#CC092F;}
</style>
<g id="PROPORÇ_x2DC_AO_E_REGRAS">
	<path class="st0" d="M213.7,327.9c-4.6,0-9.2,1-12.1,2.4v-28.7c-4.5,1.7-9.3,4-13.3,7.2c-2.1,1.7-2.7,3.4-2.7,5.9v70.9
		c4.3,1.8,12.9,3.4,21.2,3.4c21,0,33-12.8,33-31.4C239.9,339.3,231.3,327.9,213.7,327.9z M207.8,375.9c-1.7,0-4.3,0-6.1-0.6V343
		c2.2-1.2,5.3-1.8,9.3-1.8c8.1,0,12.3,5.6,12.3,16.1C223.3,368.3,218.3,375.9,207.8,375.9z M280.8,328.4c-7.6,0-12.1,3-16.2,8.3
		c-0.4-2.7-0.9-4.9-1.8-7.6c-1.6-0.5-4.3-0.6-6.6-0.6c-2.2,0-5,0.2-6.5,0.6v58.6c2,0.5,5.2,0.6,8.1,0.6c2.7,0,6.3-0.2,8.1-0.6V359
		c0-11.4,6-17.5,14-17.5c1.4,0,3.9,0,5.3,0.2c0.9-3.8,1-9.2,0.2-12.9C284.4,328.7,282.1,328.4,280.8,328.4z M78,357.1V387
		c0,0.8,0.6,1.3,1.3,1.3h8.3V350l-8.3,4.8C78.5,355.3,78,356,78,357.1z M86.4,283.7c-8.1,0-17,0.8-25.8,2.3
		c8.9-11.4,23-18.8,38.7-18.8c11.6,0,23.2,4.3,31,10.9c1.4,1.2,2.5,1.3,3.6,0.2c1.1-1,1-2.1-0.2-3.5c-10.2-11.8-25.2-19.8-42.8-19.5
		c-23.1,0.4-42.7,15.1-50.2,35.3c-6.8,2.1-13.1,4.7-18.7,7.8c-1.5,0.9-2.1,1.9-1.5,3.2c0.5,1.2,1.6,1.6,3.1,1.2
		c4.8-1.4,9.7-2.5,14.8-3.7c-0.5,2.7-0.9,5.4-0.9,8.3c-0.4,18.7,9.6,36.4,24.9,46.1c1.5,1,2.8,1,3.7-0.2c0.9-1.2,0.8-2.3-0.5-3.4
		c-9.7-8.8-15.2-21.8-15.2-34.7c0-6.5,1.3-12.8,3.8-18.5c5.1-0.4,10.6-0.8,16.7-0.8c39.5,0,72.8,13,72.8,30.1c0,8.6-11,17.3-24,23.1
		c-3.1,1.4-3.5,2.4-3,3.7c0.4,1.3,1.9,1.7,3.5,1.2c22.8-7.5,40-19.8,40-34.6C160.2,299.2,127.6,283.7,86.4,283.7z M102.4,341.5
		l-11,6.3v40.4h11.8c1.2,0,2.1-0.9,2.1-2.1V343C105.3,341.4,103.7,340.8,102.4,341.5z M592.1,327.6c-18,0-28.1,12.3-28.1,30.8
		c0,18.8,10.6,30.5,28.1,30.5c18.1,0,28.2-12.1,28.2-30.5C620.3,339.8,610.2,327.6,592.1,327.6z M592.1,376.1
		c-8.9,0-11.6-7.2-11.6-17.6c0-10.1,2.7-17.8,11.6-17.8c9.2,0,11.8,7.5,11.8,17.8C603.9,369.3,600.8,376.1,592.1,376.1z
		 M435.4,327.6c-17.3,0-28,11.6-28,31.1c0,19.4,11.2,30.3,30.5,30.3c6.6,0,13.7-1.2,18.3-3.4c0.9-3.8,0.9-8.7,0-12.5
		c-6,1.7-11,2.7-16.6,2.7c-8.9,0-15.1-3.4-16.5-12.8h36.5c0.5-1.4,0.6-6.2,0.6-8.2C460.4,337.5,450.5,327.6,435.4,327.6z
		 M423.2,351.3c1.2-7.1,5.4-11.4,11.9-11.4c7.2,0,10.1,4.9,10.4,11.4H423.2z M547.1,375.8c-8.1,0-13.3-6.3-13.3-17.5
		c0-10.6,4.3-17.5,13.4-17.5c3.9,0,6.6,0.6,10.3,2.1c1-3.7,3-7.8,5.7-11.2c-5-2.6-10-4-18-4c-17.7,0-28,12.6-28,30.7
		c0,18.8,10.5,30.7,28.6,30.7c6.6,0,12.7-1.2,17.6-3.9c-2.2-2.8-4.6-6.7-6.1-11.2C552.8,375.7,550.9,375.8,547.1,375.8z
		 M310.5,327.6c-6.3-0.1-11.9,0.6-17.3,2c-1,3.7-0.9,8.9,0,12.7c6.7-1.6,10.5-1.7,14.8-1.7c8.3,0,12.3,3.4,12.3,10.3v0.6
		c-2.4-0.2-5.4-0.5-7.5-0.5c-13.7,0-25.5,4.9-25.5,18.1c0,14.9,10.6,19.9,26,19.9c7.2,0,15.1-1.3,22.4-3.5V352
		C335.5,335.9,326.9,328,310.5,327.6z M320.1,375.8c-0.9,0.2-4.9,0.6-6.8,0.6c-7.4,0-11.4-2.2-11.4-7.4c0-5.2,4-7.2,11.4-7.2
		c2.4,0,5.3,0.2,6.8,0.4V375.8z M382.3,314.7v14.1c-2.8-0.8-5.9-0.9-8.4-0.9c-17.7,0-29.8,11.9-29.8,30.9
		c0,19.4,11.8,30.2,30.2,30.2c8.4,0,16.7-1.2,24.1-3.7v-83.8c-4.5,1.7-9.3,4-13.3,7.2C382.9,310.5,382.3,312.2,382.3,314.7z
		 M382.3,375c-2.7,0.8-4.6,0.9-6.8,0.9c-10.6,0-14.8-7-14.8-17.1c0-11.2,4.2-18.1,14.6-18.1c3.1,0,5,0.4,7,0.9V375z M497.2,352.9
		l-6.5-2.7c-3.8-1.6-6-2.8-6-5.3c0-3.8,3.4-4.5,7.8-4.5c4.4,0,8.9,0.5,15.1,2.4c0.8-4.3,0.8-8.3,0-12.1c-3.9-2.1-11.1-3.1-17.5-3.1
		c-12.5,0-21.9,6.7-21.9,16.8c0,9,3.9,13.6,14.8,18l5,2.1c4.8,2,6.2,3.1,6.2,6.2c0,4.6-4.6,5.4-8.5,5.4c-6.5,0-11.4-1.3-17.6-3.5
		c-1,3.8-1,8.7,0,12.6c5.3,2.8,12.6,3.8,20.2,3.8c12.3,0,22.1-6.5,22.1-18.1C510.5,361.3,506.3,356.8,497.2,352.9z"/>
</g>
</svg>
